<svg aria-hidden="true" style="position: absolute; width: 0; height: 0; overflow: hidden;" version="1.1" xmlns="http://www.w3.org/2000/svg" xmlns:xlink="http://www.w3.org/1999/xlink">
<defs>
<symbol id="icon--copy-2" viewBox="0 0 32 32">
<path d="M0 8h32l-16 16z"></path>
</symbol>
<symbol id="icon-SL" viewBox="0 0 32 32">
<path fill="#323642" style="fill: var(--color1, #323642)" d="M15.635 0c0.11-0.003 0.239-0.004 0.369-0.004 8.839 0 16.004 7.165 16.004 16.004s-7.165 16.004-16.004 16.004c-8.839 0-16.004-7.165-16.004-16.004 0-0.001 0-0.002 0-0.003v0c0.002-8.707 6.957-15.79 15.615-15.996l0.019-0z"></path>
<path fill="#fff" style="fill: var(--color2, #fff)" d="M14.331 27.326c-2.022-0.213-3.857-0.86-5.46-1.846l0.056 0.032c-1.459-0.861-2.605-2.117-3.309-3.621l-0.021-0.050c-0.319-0.717-0.505-1.553-0.505-2.433 0-0.378 0.034-0.747 0.1-1.106l-0.006 0.037c0.006-0.020 0.010-0.043 0.010-0.067 0-0.093-0.053-0.174-0.131-0.213l-0.001-0.001c-0.715-0.43-1.223-1.141-1.373-1.976l-0.003-0.018c-0.031-0.154-0.049-0.332-0.049-0.514 0-1.497 1.213-2.71 2.71-2.71 0.23 0 0.452 0.029 0.665 0.082l-0.019-0.004c0.538 0.182 0.996 0.386 1.432 0.627l-0.045-0.023c0.043 0.032 0.097 0.050 0.155 0.050s0.112-0.019 0.155-0.051l-0.001 0.001c1.253-0.859 2.728-1.501 4.316-1.834l0.079-0.014c0.804-0.19 1.729-0.301 2.679-0.305h0.003c0.178 0 0.213-0.095 0.255-0.228q0.721-2.301 1.449-4.601c0.041-0.358 0.342-0.634 0.708-0.634 0.101 0 0.197 0.021 0.284 0.059l-0.005-0.002c1.34 0.286 2.679 0.568 4.017 0.86 0.033 0.013 0.071 0.020 0.111 0.020 0.11 0 0.206-0.055 0.264-0.139l0.001-0.001c0.394-0.462 0.976-0.752 1.626-0.752 0.777 0 1.456 0.415 1.829 1.035l0.005 0.010c0.16 0.289 0.254 0.634 0.254 1 0 1.054-0.778 1.927-1.792 2.074l-0.011 0.001c-0.098 0.016-0.211 0.025-0.327 0.025-0.987 0-1.819-0.665-2.071-1.572l-0.004-0.015c-0.032-0.186-0.187-0.328-0.376-0.341l-0.001-0c-1.033-0.213-2.061-0.439-3.094-0.66-0.081-0.017-0.165-0.027-0.269-0.044-0.427 1.342-0.854 2.667-1.296 4.037l0.711 0.074c2.101 0.197 4.005 0.897 5.635 1.979l-0.045-0.028c0.034 0.030 0.079 0.049 0.128 0.049 0.059 0 0.111-0.026 0.147-0.068l0-0c0.479-0.426 1.113-0.687 1.809-0.687 0.436 0 0.848 0.102 1.213 0.284l-0.016-0.007c0.927 0.393 1.576 1.273 1.631 2.31l0 0.007c0.006 0.070 0.010 0.152 0.010 0.234 0 0.966-0.502 1.815-1.259 2.3l-0.011 0.007c-0.148 0.085-0.245 0.241-0.245 0.421 0 0.042 0.005 0.083 0.016 0.123l-0.001-0.003c0.041 0.271 0.065 0.584 0.065 0.903 0 1.648-0.633 3.148-1.669 4.27l0.004-0.004c-1.572 1.728-3.673 2.951-6.046 3.411l-0.069 0.011c-0.956 0.226-2.053 0.355-3.18 0.355h-0c-0.642-0-1.275-0.042-1.896-0.122l0.073 0.008z"></path>
</symbol>
<symbol id="icon-Amazon-Pay-logo" viewBox="0 0 32 32">
<path fill="#000" style="fill: var(--color3, #000)" d="M0 12.933h31.945v6.133h-31.945v-6.133z"></path>
<path fill="#889099" style="fill: var(--color4, #889099)" d="M0 12.933h31.945v6.133h-31.945v-6.133z"></path>
</symbol>
<symbol id="icon-amex_logo" viewBox="0 0 32 32">
<path fill="#889099" style="fill: var(--color4, #889099)" d="M0.005 0v32h31.999v-32z"></path>
<path fill="#323642" style="fill: var(--color1, #323642)" d="M19.963 23.033l-0.627-0.814v0.814h-2.481v-1.421c-0.353 0.134-0.762 0.212-1.189 0.212-0.004 0-0.009 0-0.013-0h0.038v1.208h-3.559l-0.512-0.727-0.498 0.727h-5.688v-5.593h5.71l0.501 0.716 0.507-0.716h19.857v5.247c-0.117 0.073-0.252 0.14-0.394 0.192l-0.015 0.005c-0.253 0.093-0.545 0.147-0.85 0.147-0.004 0-0.009 0-0.013-0h0.001zM28.089 15.518l-0.523-0.83v0.83h-3.461l-0.307-0.803h-0.571l-0.301 0.803h-2.064c-0.002 0-0.004 0-0.006 0-0.205 0-0.405-0.019-0.599-0.055l0.020 0.003c-0.143-0.026-0.265-0.057-0.385-0.096l0.020 0.006c-0.116-0.038-0.211-0.076-0.304-0.119l0.016 0.007c-0.108-0.051-0.198-0.101-0.284-0.158l0.009 0.005v0.407h-3.449l-0.625-0.814v0.813h-12.476l-0.31-0.803h-0.568l-0.302 0.803h-1.622v-3.199l1.024-2.392h2.289l0.507 1.143v-1.143h2.806l0.334 0.975 0.329-0.975h12.061v0.437c0.094-0.064 0.203-0.125 0.317-0.178l0.015-0.006c0.082-0.039 0.183-0.079 0.288-0.113l0.019-0.005c0.115-0.038 0.255-0.071 0.399-0.094l0.016-0.002c0.152-0.024 0.326-0.038 0.504-0.038 0.005 0 0.011 0 0.016 0h3.695l0.501 1.131v-1.131h2.236l0.571 0.894v-0.894h2.562v5.592z"></path>
<path fill="#889099" style="fill: var(--color4, #889099)" d="M28.826 22.122v-0.754h1.934c0.004 0 0.008 0 0.013 0 0.198 0 0.359-0.161 0.359-0.359 0-0.008-0-0.016-0.001-0.024l0 0.001c0-0.005 0-0.012 0-0.018 0-0.193-0.156-0.349-0.349-0.349-0.008 0-0.016 0-0.023 0.001l0.001-0h-0.868c-0.039 0.005-0.083 0.008-0.128 0.008-0.579 0-1.047-0.469-1.047-1.047 0-0.019 0-0.038 0.001-0.056l-0 0.003c-0-0.004-0-0.009-0-0.014 0-0.645 0.523-1.168 1.168-1.168 0.046 0 0.091 0.003 0.136 0.008l-0.005-0h1.945l-0.335 0.765h-1.637c-0.003-0-0.007-0-0.011-0-0.197 0-0.356 0.159-0.356 0.356 0 0.007 0 0.015 0.001 0.022l-0-0.001c-0 0.006-0 0.012-0 0.019 0 0.19 0.154 0.343 0.343 0.343 0.008 0 0.016-0 0.024-0.001l-0.001 0h0.873c0.043-0.006 0.093-0.010 0.143-0.010 0.567 0 1.027 0.46 1.027 1.027 0 0.018-0 0.036-0.001 0.053l0-0.002c0 0.011 0.001 0.023 0.001 0.035 0 0.648-0.525 1.173-1.173 1.173-0.044 0-0.088-0.002-0.131-0.007l0.005 0zM25.238 22.122v-0.754h1.934c0.004 0 0.008 0 0.013 0 0.198 0 0.359-0.161 0.359-0.359 0-0.008-0-0.016-0.001-0.024l0 0.001c0-0.005 0-0.012 0-0.018 0-0.193-0.156-0.349-0.349-0.349-0.008 0-0.016 0-0.023 0.001l0.001-0h-0.87c-0.038 0.005-0.082 0.008-0.127 0.008-0.579 0-1.047-0.469-1.047-1.047 0-0.019 0-0.038 0.002-0.057l-0 0.003c-0-0.004-0-0.009-0-0.013 0-0.645 0.523-1.169 1.169-1.169 0.046 0 0.091 0.003 0.135 0.008l-0.005-0h1.945l-0.334 0.765h-1.638c-0.003-0-0.007-0-0.011-0-0.197 0-0.356 0.159-0.356 0.356 0 0.007 0 0.015 0.001 0.022l-0-0.001c-0 0.006-0 0.012-0 0.019 0 0.19 0.154 0.343 0.343 0.343 0.008 0 0.016-0 0.024-0.001l-0.001 0h0.873c0.043-0.006 0.093-0.010 0.144-0.010 0.567 0 1.027 0.46 1.027 1.027 0 0.018-0 0.036-0.001 0.053l0-0.002c0 0.011 0.001 0.023 0.001 0.035 0 0.648-0.525 1.173-1.173 1.173-0.044 0-0.088-0.002-0.132-0.007l0.005 0zM21.672 22.122v-3.771h3.017v0.765h-2.112v0.733h2.065v0.756h-2.065v0.757h2.111v0.76zM20.126 22.122l-1.127-1.358h-0.425v1.358h-0.905v-3.771h2.049c0.038-0.004 0.082-0.007 0.126-0.007 0.651 0 1.179 0.528 1.179 1.179 0 0.008-0 0.016-0 0.025l0-0.001c0 0.008 0 0.017 0 0.026 0 0.594-0.444 1.085-1.018 1.159l-0.006 0.001 1.255 1.39zM13.802 22.122v-3.771h2.076c0.030-0.003 0.066-0.004 0.101-0.004 0.666 0 1.205 0.54 1.205 1.205 0 0.021-0.001 0.042-0.002 0.062l0-0.003c0 0.010 0 0.023 0 0.035 0 0.682-0.553 1.235-1.235 1.235-0.036 0-0.071-0.002-0.107-0.005l0.005 0h-1.14v1.246zM12.471 22.122l-0.927-1.212-0.927 1.212h-1.101l1.505-1.886-1.508-1.886h1.13l0.922 1.196 0.927-1.196h1.098l-1.503 1.87 1.514 1.902zM6.313 22.122v-3.771h3.017v0.765h-2.112v0.733h2.061v0.756h-2.061v0.757h2.112v0.76z"></path>
<path fill="#889099" style="fill: var(--color4, #889099)" d="M28.454 14.606l-1.444-2.258-0.189-0.312 0.011 0.312v2.258h-0.884v-3.771h1.109l1.412 2.182 0.167 0.281-0.011-0.281v-2.182h0.884v3.771zM24.72 14.606l-0.326-0.808h-1.791l-0.317 0.808h-0.964l1.615-3.771h1.191l1.61 3.771zM20.772 14.606c-0.022 0.001-0.048 0.002-0.074 0.002-0.925 0-1.675-0.75-1.675-1.675 0-0.063 0.003-0.126 0.010-0.187l-0.001 0.008v-0.065c-0.004-0.046-0.007-0.1-0.007-0.154 0-0.941 0.762-1.703 1.703-1.703 0.036 0 0.072 0.001 0.108 0.003l-0.005-0h1.056v0.814h-0.98c-0.013-0.001-0.028-0.001-0.043-0.001-0.518 0-0.938 0.42-0.938 0.938 0 0.038 0.002 0.075 0.007 0.112l-0-0.004v0.054c-0.005 0.036-0.008 0.077-0.008 0.119 0 0.517 0.419 0.935 0.935 0.935 0.020 0 0.041-0.001 0.061-0.002l-0.003 0h0.273l-0.371 0.803zM17.556 14.606v-3.771h0.907v3.771zM16.144 14.606l-1.127-1.358h-0.425v1.358h-0.904v-3.771h2.046c0.038-0.004 0.081-0.007 0.125-0.007 0.652 0 1.18 0.528 1.18 1.18 0 0.008-0 0.016-0 0.024l0-0.001c0 0.008 0 0.017 0 0.026 0 0.595-0.444 1.085-1.018 1.159l-0.006 0.001 1.255 1.389zM10.008 14.606v-3.771h3.017v0.765h-2.11v0.733h2.063v0.756h-2.063v0.747h2.111v0.771zM8.387 14.606v-2.581l0.022-0.991-1.045 3.571h-0.819l-1.045-3.593 0.022 1.018v2.575h-0.88v-3.771h1.589l0.724 2.669 0.715-2.669h1.594v3.771zM3.415 14.606l-0.323-0.808h-1.794l-0.319 0.808h-0.964l1.616-3.771h1.19l1.611 3.771z"></path>
</symbol>
<symbol id="icon-Bitcoin" viewBox="0 0 32 32">
<path fill="#889099" style="fill: var(--color4, #889099)" d="M8.536 17.751c-0.059 0-0.156 0-0.266-0.004-0.158-0.005-0.307-0.018-0.454-0.040l0.021 0.003c-0.206-0.029-0.381-0.065-0.553-0.109l0.036 0.008c-0.198-0.048-0.37-0.112-0.533-0.191l0.016 0.007 1.455-6.082 1.303-0.203-0.521 2.159c0.094-0.044 0.206-0.084 0.322-0.114l0.014-0.003c0.105-0.026 0.227-0.041 0.351-0.041 0.004 0 0.008 0 0.012 0h-0.001c0.011-0 0.024-0 0.038-0 0.239 0 0.466 0.053 0.67 0.147l-0.010-0.004c0.194 0.094 0.357 0.224 0.487 0.383l0.002 0.003c0.126 0.16 0.223 0.35 0.281 0.556l0.003 0.011c0.059 0.206 0.092 0.443 0.092 0.687 0 0.005-0 0.011-0 0.017v-0.001c0 0.005 0 0.010 0 0.016 0 0.389-0.079 0.759-0.221 1.097l0.007-0.018c-0.144 0.347-0.342 0.644-0.586 0.896l0.001-0.001c-0.244 0.249-0.534 0.452-0.857 0.595l-0.018 0.007c-0.315 0.14-0.682 0.222-1.068 0.222-0.008 0-0.016-0-0.024-0h0.001zM9.427 14.177c-0.111 0.004-0.216 0.018-0.318 0.043l0.011-0.002c-0.132 0.031-0.247 0.093-0.342 0.177l0.001-0.001-0.555 2.295c0.033 0.005 0.062 0.011 0.088 0.016 0.023 0.005 0.050 0.010 0.078 0.013l0.003 0c0.028 0.003 0.061 0.005 0.093 0.005 0.003 0 0.005 0 0.008-0h0.151c0 0 0.001 0 0.001 0 0.203 0 0.394-0.053 0.56-0.145l-0.006 0.003c0.178-0.098 0.328-0.226 0.448-0.378l0.002-0.003c0.122-0.155 0.223-0.334 0.294-0.527l0.004-0.013c0.070-0.186 0.11-0.4 0.11-0.624 0-0.001 0-0.002 0-0.004v0c0.001-0.019 0.002-0.041 0.002-0.064 0-0.206-0.050-0.4-0.14-0.57l0.003 0.007c-0.097-0.14-0.257-0.23-0.438-0.23-0.021 0-0.042 0.001-0.063 0.004l0.002-0z"></path>
<path fill="#889099" style="fill: var(--color4, #889099)" d="M12.655 17.634h-1.245l1.053-4.402h1.256l-1.064 4.401zM13.263 12.696c-0.002 0-0.003 0-0.005 0-0.176 0-0.338-0.058-0.468-0.156l0.002 0.001c-0.13-0.101-0.212-0.258-0.212-0.434 0-0.014 0.001-0.028 0.002-0.041l-0 0.002c0-0.001 0-0.002 0-0.003 0-0.119 0.026-0.231 0.073-0.332l-0.002 0.005c0.048-0.104 0.111-0.193 0.188-0.268l0-0c0.077-0.073 0.167-0.134 0.265-0.177l0.006-0.002c0.097-0.042 0.21-0.067 0.329-0.067 0.002 0 0.004 0 0.006 0h-0c0.002 0 0.003-0 0.005-0 0.175 0 0.337 0.058 0.467 0.156l-0.002-0.001c0.129 0.102 0.212 0.259 0.212 0.435 0 0.013-0 0.027-0.001 0.040l0-0.002c0 0.001 0 0.003 0 0.005 0 0.118-0.026 0.23-0.074 0.331l0.002-0.005c-0.048 0.104-0.111 0.193-0.188 0.268l-0 0c-0.077 0.073-0.168 0.134-0.267 0.177l-0.006 0.002c-0.095 0.042-0.206 0.067-0.323 0.067-0.003 0-0.006-0-0.009-0h0z"></path>
<path fill="#889099" style="fill: var(--color4, #889099)" d="M14.806 12.137l1.304-0.203-0.32 1.296h1.397l-0.252 1.021h-1.388l-0.37 1.539c-0.030 0.105-0.051 0.228-0.059 0.355l-0 0.005c-0.002 0.017-0.002 0.036-0.002 0.056 0 0.084 0.016 0.164 0.044 0.238l-0.002-0.004c0.036 0.083 0.099 0.149 0.179 0.187l0.002 0.001c0.097 0.043 0.211 0.068 0.331 0.068 0.015 0 0.031-0 0.046-0.001l-0.002 0c0.001 0 0.003 0 0.005 0 0.137 0 0.271-0.014 0.4-0.040l-0.013 0.002c0.149-0.030 0.277-0.066 0.402-0.111l-0.019 0.006 0.093 0.955c-0.146 0.055-0.329 0.11-0.517 0.153l-0.030 0.006c-0.195 0.043-0.419 0.067-0.648 0.067-0.018 0-0.035-0-0.053-0l0.003 0c-0.030 0.002-0.064 0.003-0.099 0.003-0.29 0-0.566-0.064-0.813-0.178l0.012 0.005c-0.2-0.103-0.357-0.264-0.451-0.462l-0.003-0.006c-0.077-0.174-0.122-0.376-0.122-0.59 0-0.032 0.001-0.064 0.003-0.096l-0 0.004c0.015-0.295 0.057-0.573 0.124-0.84l-0.006 0.030 0.827-3.465z"></path>
<path fill="#889099" style="fill: var(--color4, #889099)" d="M17.131 15.877c-0-0.006-0-0.013-0-0.020 0-0.377 0.068-0.739 0.192-1.073l-0.007 0.021c0.125-0.341 0.305-0.634 0.532-0.883l-0.002 0.002c0.23-0.248 0.509-0.448 0.821-0.586l0.016-0.006c0.312-0.138 0.677-0.218 1.060-0.218 0.013 0 0.026 0 0.039 0l-0.002-0c0.011-0 0.023-0 0.036-0 0.227 0 0.448 0.026 0.661 0.075l-0.020-0.004c0.207 0.049 0.388 0.113 0.56 0.195l-0.017-0.007-0.429 0.972c-0.112-0.045-0.229-0.085-0.349-0.122-0.124-0.036-0.266-0.057-0.413-0.057-0.010 0-0.019 0-0.029 0l0.001-0c-0.016-0.001-0.034-0.001-0.053-0.001-0.374 0-0.709 0.166-0.935 0.428l-0.001 0.002c-0.229 0.288-0.367 0.656-0.367 1.057 0 0.032 0.001 0.063 0.003 0.095l-0-0.004c-0.001 0.016-0.001 0.034-0.001 0.053 0 0.236 0.070 0.456 0.189 0.64l-0.003-0.005c0.143 0.165 0.354 0.269 0.588 0.269 0.033 0 0.065-0.002 0.097-0.006l-0.004 0c0.003 0 0.007 0 0.010 0 0.163 0 0.321-0.018 0.474-0.051l-0.015 0.003c0.155-0.033 0.291-0.077 0.42-0.131l-0.015 0.006 0.093 0.996c-0.139 0.055-0.313 0.111-0.491 0.155l-0.031 0.007c-0.191 0.045-0.411 0.070-0.636 0.070-0.016 0-0.032-0-0.048-0l0.002 0c-0.018 0.001-0.040 0.001-0.062 0.001-0.295 0-0.578-0.055-0.837-0.157l0.016 0.005c-0.234-0.095-0.433-0.232-0.596-0.404l-0.001-0.001c-0.153-0.165-0.27-0.365-0.339-0.587l-0.003-0.011c-0.067-0.212-0.106-0.456-0.106-0.709 0-0.003 0-0.007 0-0.010v0.001z"></path>
<path fill="#889099" style="fill: var(--color4, #889099)" d="M22.662 17.751c-0.013 0-0.028 0-0.044 0-0.263 0-0.514-0.049-0.745-0.139l0.014 0.005c-0.214-0.086-0.396-0.214-0.541-0.375l-0.001-0.001c-0.141-0.161-0.251-0.352-0.321-0.562l-0.003-0.012c-0.069-0.209-0.108-0.449-0.108-0.699 0-0.011 0-0.023 0-0.034l-0 0.002c0.001-0.36 0.060-0.705 0.169-1.028l-0.007 0.023c0.114-0.346 0.279-0.647 0.49-0.909l-0.004 0.006c0.214-0.267 0.473-0.487 0.768-0.652l0.013-0.007c0.295-0.161 0.647-0.255 1.021-0.255 0.014 0 0.027 0 0.041 0l-0.002-0c0.011-0 0.023-0 0.036-0 0.264 0 0.516 0.049 0.748 0.139l-0.014-0.005c0.216 0.086 0.399 0.214 0.545 0.376l0.001 0.001c0.141 0.161 0.252 0.352 0.321 0.562l0.003 0.012c0.069 0.21 0.11 0.452 0.11 0.704 0 0.010-0 0.020-0 0.029v-0.001c-0.002 0.36-0.060 0.705-0.166 1.029l0.007-0.024c-0.111 0.346-0.271 0.646-0.476 0.91l0.005-0.007c-0.211 0.268-0.47 0.489-0.765 0.651l-0.013 0.006c-0.301 0.161-0.658 0.255-1.037 0.255-0.015 0-0.031-0-0.046-0l0.002 0zM23.284 14.168c-0.002-0-0.005-0-0.008-0-0.181 0-0.349 0.061-0.482 0.163l0.002-0.001c-0.142 0.11-0.26 0.243-0.349 0.395l-0.004 0.006c-0.091 0.153-0.165 0.329-0.212 0.516l-0.003 0.014c-0.044 0.164-0.069 0.353-0.071 0.547v0.001c-0.001 0.020-0.002 0.044-0.002 0.068 0 0.213 0.050 0.414 0.138 0.592l-0.003-0.008c0.094 0.143 0.253 0.237 0.435 0.237 0.019 0 0.037-0.001 0.055-0.003l-0.002 0c0.004 0 0.008 0 0.013 0 0.179 0 0.345-0.060 0.477-0.161l-0.002 0.001c0.142-0.11 0.26-0.243 0.349-0.395l0.003-0.006c0.091-0.153 0.165-0.33 0.213-0.518l0.003-0.014c0.043-0.164 0.069-0.352 0.071-0.547v-0.001c0.001-0.020 0.002-0.043 0.002-0.067 0-0.213-0.050-0.415-0.14-0.594l0.003 0.008c-0.093-0.144-0.253-0.238-0.435-0.238-0.018 0-0.036 0.001-0.054 0.003l0.002-0z"></path>
<path fill="#889099" style="fill: var(--color4, #889099)" d="M26.508 17.634h-1.246l1.053-4.402h1.256l-1.063 4.401zM27.113 12.696c-0.001 0-0.003 0-0.005 0-0.176 0-0.337-0.058-0.468-0.156l0.002 0.001c-0.13-0.102-0.212-0.258-0.212-0.434 0-0.014 0-0.027 0.001-0.041l-0 0.002c0-0.001 0-0.001 0-0.002 0-0.119 0.026-0.232 0.074-0.333l-0.002 0.005c0.048-0.104 0.112-0.193 0.19-0.268l0-0c0.077-0.073 0.168-0.134 0.267-0.178l0.006-0.002c0.096-0.042 0.209-0.067 0.327-0.067 0.002 0 0.003 0 0.005 0h-0c0.002 0 0.003-0 0.005-0 0.176 0 0.338 0.058 0.468 0.156l-0.002-0.001c0.13 0.102 0.212 0.259 0.212 0.434 0 0.013-0 0.027-0.001 0.040l0-0.002c0 0 0 0 0 0.001 0 0.12-0.027 0.233-0.074 0.335l0.002-0.005c-0.048 0.104-0.111 0.193-0.188 0.268l-0 0c-0.077 0.073-0.168 0.133-0.267 0.177l-0.006 0.002c-0.096 0.042-0.207 0.067-0.325 0.067-0.003 0-0.006-0-0.009-0h0z"></path>
<path fill="#889099" style="fill: var(--color4, #889099)" d="M28.464 13.433c0.094-0.028 0.2-0.060 0.315-0.096s0.243-0.069 0.388-0.1c0.129-0.029 0.292-0.056 0.458-0.074l0.021-0.002c0.17-0.019 0.368-0.030 0.568-0.030 0.012 0 0.024 0 0.035 0h-0.002c0.052-0.006 0.111-0.010 0.172-0.010 0.481 0 0.909 0.225 1.185 0.576l0.002 0.003c0.149 0.267 0.236 0.587 0.236 0.926 0 0.226-0.039 0.442-0.11 0.643l0.004-0.014-0.573 2.377h-1.253l0.555-2.327c0.034-0.145 0.060-0.286 0.081-0.423 0.009-0.050 0.014-0.108 0.014-0.168 0-0.068-0.007-0.134-0.020-0.198l0.001 0.006c-0.021-0.102-0.077-0.189-0.154-0.25l-0.001-0.001c-0.093-0.061-0.207-0.098-0.329-0.098-0.016 0-0.032 0.001-0.048 0.002l0.002-0c-0.176 0.001-0.347 0.019-0.513 0.054l0.017-0.003-0.817 3.405h-1.254l1.018-4.201z"></path>
<path fill="#889099" style="fill: var(--color4, #889099)" d="M14.464 20.699h-0.243c-0.008-0.073-0.015-0.144-0.023-0.224s-0.014-0.151-0.022-0.217h-0.754l-0.243 0.441h-0.266c0.187-0.335 0.37-0.645 0.545-0.922s0.351-0.546 0.525-0.796h0.237c0.026 0.13 0.049 0.256 0.068 0.376 0.022 0.132 0.040 0.267 0.061 0.398 0.020 0.141 0.040 0.29 0.058 0.442 0.017 0.141 0.035 0.301 0.057 0.503zM14.045 19.255c-0.058 0.084-0.131 0.194-0.217 0.324s-0.188 0.3-0.294 0.482h0.618c-0.013-0.129-0.028-0.263-0.046-0.399s-0.038-0.267-0.061-0.407z"></path>
<path fill="#889099" style="fill: var(--color4, #889099)" d="M15.347 20.736c-0.004 0-0.009 0-0.014 0-0.097 0-0.19-0.017-0.275-0.049l0.006 0.002c-0.081-0.030-0.15-0.076-0.206-0.134l-0-0c-0.054-0.058-0.095-0.128-0.12-0.206l-0.001-0.004c-0.028-0.082-0.045-0.176-0.045-0.274 0-0.001 0-0.002 0-0.002v0c0-0.002 0-0.004 0-0.006 0-0.151 0.026-0.295 0.074-0.43l-0.003 0.009c0.048-0.138 0.117-0.257 0.204-0.361l-0.001 0.002c0.086-0.103 0.191-0.186 0.309-0.247l0.006-0.003c0.116-0.059 0.254-0.093 0.399-0.093 0.004 0 0.009 0 0.013 0h-0.001c0.009-0 0.019-0 0.029-0 0.1 0 0.197 0.015 0.288 0.043l-0.007-0.002c0.063 0.019 0.118 0.045 0.169 0.076l-0.003-0.002-0.098 0.197c-0.045-0.027-0.097-0.051-0.152-0.068l-0.005-0.001c-0.067-0.022-0.143-0.035-0.223-0.035-0.003 0-0.007 0-0.010 0h0.001c-0.003-0-0.006-0-0.009-0-0.111 0-0.214 0.030-0.303 0.083l0.003-0.002c-0.092 0.054-0.169 0.124-0.23 0.206l-0.001 0.002c-0.061 0.082-0.11 0.178-0.143 0.281l-0.002 0.007c-0.031 0.094-0.049 0.203-0.050 0.316v0q0 0.484 0.421 0.484c0.003 0 0.006 0 0.009 0 0.054 0 0.107-0.005 0.159-0.013l-0.006 0.001c0.050-0.008 0.092-0.018 0.134-0.030l-0.008 0.002c0.038-0.011 0.070-0.023 0.101-0.038l-0.004 0.002 0.075-0.035 0.030 0.208c-0.022 0.012-0.047 0.025-0.074 0.036l-0.004 0.002c-0.030 0.012-0.068 0.025-0.106 0.036l-0.007 0.002c-0.039 0.011-0.088 0.021-0.138 0.028l-0.006 0.001c-0.049 0.007-0.106 0.011-0.163 0.011-0.002 0-0.004 0-0.006 0h0z"></path>
<path fill="#889099" style="fill: var(--color4, #889099)" d="M16.747 20.736c-0.004 0-0.009 0-0.014 0-0.097 0-0.19-0.017-0.276-0.049l0.006 0.002c-0.081-0.030-0.15-0.076-0.206-0.134l-0-0c-0.054-0.058-0.095-0.128-0.12-0.206l-0.001-0.004c-0.028-0.082-0.045-0.176-0.045-0.274 0-0.001 0-0.002 0-0.002v0c0-0.002 0-0.004 0-0.006 0-0.151 0.026-0.295 0.074-0.43l-0.003 0.009c0.048-0.138 0.117-0.257 0.204-0.361l-0.001 0.002c0.086-0.103 0.191-0.186 0.309-0.247l0.006-0.003c0.116-0.059 0.254-0.093 0.399-0.093 0.004 0 0.009 0 0.013 0h-0.001c0.009-0 0.019-0 0.029-0 0.1 0 0.197 0.015 0.288 0.043l-0.007-0.002c0.063 0.019 0.118 0.045 0.169 0.076l-0.003-0.002-0.098 0.197c-0.045-0.027-0.097-0.051-0.152-0.068l-0.005-0.001c-0.067-0.022-0.143-0.035-0.223-0.035-0.003 0-0.007 0-0.010 0h0c-0.003-0-0.006-0-0.009-0-0.111 0-0.214 0.030-0.303 0.083l0.003-0.002c-0.092 0.054-0.169 0.124-0.23 0.206l-0.001 0.002c-0.061 0.082-0.11 0.178-0.143 0.281l-0.002 0.007c-0.031 0.094-0.049 0.203-0.050 0.316v0q0 0.484 0.421 0.484c0.003 0 0.006 0 0.009 0 0.054 0 0.107-0.005 0.159-0.013l-0.006 0.001c0.050-0.008 0.092-0.018 0.134-0.030l-0.008 0.002c0.038-0.011 0.070-0.023 0.101-0.038l-0.004 0.002 0.075-0.035 0.030 0.208c-0.022 0.012-0.047 0.025-0.074 0.036l-0.004 0.002c-0.030 0.012-0.068 0.025-0.106 0.036l-0.007 0.002c-0.039 0.011-0.088 0.021-0.138 0.028l-0.006 0.001c-0.049 0.007-0.106 0.011-0.163 0.011-0.002 0-0.004 0-0.006 0h0z"></path>
<path fill="#889099" style="fill: var(--color4, #889099)" d="M17.417 20.699l0.414-1.719h1.019l-0.047 0.203h-0.779l-0.125 0.518h0.692l-0.047 0.196h-0.689l-0.149 0.601h0.838l-0.047 0.203h-1.079z"></path>
<path fill="#889099" style="fill: var(--color4, #889099)" d="M18.962 20.699h-0.243l0.409-1.696c0.064-0.016 0.14-0.027 0.218-0.033l0.004-0c0.078-0.005 0.152-0.008 0.22-0.008 0.016-0.001 0.034-0.002 0.053-0.002 0.15 0 0.289 0.043 0.407 0.118l-0.003-0.002c0.094 0.072 0.154 0.184 0.154 0.311 0 0.008-0 0.015-0.001 0.023l0-0.001c0 0.005 0 0.011 0 0.016 0 0.1-0.024 0.195-0.065 0.279l0.002-0.004c-0.044 0.083-0.105 0.151-0.179 0.201l-0.002 0.001c-0.081 0.054-0.176 0.094-0.278 0.116l-0.006 0.001c-0.108 0.026-0.231 0.041-0.359 0.041-0.002 0-0.004 0-0.006 0h-0.172l-0.153 0.637zM19.541 19.165c-0.013-0-0.029-0.001-0.045-0.001-0.060 0-0.119 0.004-0.177 0.012l0.007-0.001-0.162 0.682h0.157c0.076-0 0.15-0.007 0.222-0.020l-0.008 0.001c0.073-0.012 0.139-0.036 0.199-0.068l-0.003 0.002c0.059-0.032 0.107-0.076 0.142-0.129l0.001-0.001c0.036-0.056 0.057-0.124 0.057-0.197 0-0.006-0-0.012-0-0.018l0 0.001c0-0.005 0.001-0.011 0.001-0.017 0-0.079-0.042-0.147-0.104-0.185l-0.001-0.001c-0.075-0.038-0.163-0.061-0.257-0.061-0.010 0-0.020 0-0.030 0.001l0.001-0z"></path>
<path fill="#889099" style="fill: var(--color4, #889099)" d="M21.654 18.98l-0.047 0.203h-0.521l-0.365 1.518h-0.243l0.366-1.518h-0.521l0.047-0.203z"></path>
<path fill="#889099" style="fill: var(--color4, #889099)" d="M21.43 20.699l0.414-1.719h1.019l-0.047 0.203h-0.779l-0.125 0.518h0.692l-0.047 0.196h-0.689l-0.149 0.601h0.838l-0.047 0.203h-1.079z"></path>
<path fill="#889099" style="fill: var(--color4, #889099)" d="M23.177 20.716c-0.068 0-0.142-0.003-0.227-0.010-0.079-0.006-0.152-0.018-0.223-0.037l0.009 0.002 0.401-1.668c0.064-0.016 0.14-0.027 0.218-0.032l0.004-0c0.081-0.005 0.154-0.007 0.222-0.007 0.019-0.002 0.040-0.002 0.062-0.002 0.194 0 0.373 0.068 0.512 0.183l-0.001-0.001c0.117 0.116 0.19 0.277 0.19 0.455 0 0.011-0 0.022-0.001 0.033l0-0.002c0 0 0 0 0 0 0 0.146-0.025 0.286-0.070 0.417l0.003-0.009c-0.047 0.136-0.118 0.252-0.21 0.349l0-0c-0.1 0.103-0.222 0.185-0.358 0.238l-0.007 0.002c-0.147 0.057-0.317 0.090-0.495 0.090-0.010 0-0.020-0-0.030-0l0.002 0zM23.561 19.165c-0.016-0.001-0.034-0.001-0.052-0.001-0.060 0-0.12 0.004-0.178 0.011l0.007-0.001-0.318 1.327c0.020 0.004 0.043 0.007 0.066 0.008l0.001 0c0.033 0.003 0.085 0.004 0.155 0.004 0.004 0 0.008 0 0.013 0 0.123 0 0.241-0.024 0.349-0.068l-0.006 0.002c0.105-0.043 0.194-0.106 0.267-0.183l0-0c0.072-0.079 0.129-0.173 0.166-0.276l0.002-0.006c0.038-0.103 0.060-0.222 0.060-0.346 0-0.003 0-0.006-0-0.010v0c0-0.008 0.001-0.017 0.001-0.026 0-0.123-0.049-0.234-0.128-0.315l0 0c-0.097-0.077-0.221-0.124-0.356-0.124-0.017 0-0.034 0.001-0.050 0.002l0.002-0z"></path>
<path fill="#889099" style="fill: var(--color4, #889099)" d="M26.206 20.699h-0.243l0.192-0.798h-0.799l-0.191 0.798h-0.243l0.414-1.719h0.243l-0.176 0.719h0.8l0.174-0.719h0.243l-0.415 1.719z"></path>
<path fill="#889099" style="fill: var(--color4, #889099)" d="M26.588 20.699l0.414-1.719h1.019l-0.047 0.203h-0.78l-0.125 0.518h0.694l-0.047 0.196h-0.689l-0.15 0.601h0.838l-0.047 0.203h-1.079z"></path>
<path fill="#889099" style="fill: var(--color4, #889099)" d="M28.133 20.699h-0.243l0.409-1.696c0.064-0.016 0.14-0.028 0.218-0.033l0.004-0c0.080-0.005 0.154-0.007 0.22-0.007 0.012-0.001 0.027-0.001 0.041-0.001 0.148 0 0.286 0.042 0.403 0.114l-0.003-0.002c0.099 0.068 0.163 0.181 0.163 0.308 0 0.007-0 0.013-0.001 0.020l0-0.001c0 0.005 0 0.010 0 0.015 0 0.134-0.049 0.256-0.129 0.35l0.001-0.001c-0.094 0.102-0.217 0.177-0.355 0.211l-0.005 0.001c0.021 0.036 0.044 0.081 0.070 0.133s0.053 0.112 0.081 0.179 0.056 0.134 0.081 0.203 0.049 0.135 0.070 0.203h-0.245c-0.023-0.063-0.047-0.127-0.072-0.191s-0.047-0.119-0.076-0.186-0.053-0.119-0.077-0.167-0.047-0.093-0.071-0.137h-0.002c-0.021 0-0.041 0.003-0.063 0.004h-0.256l-0.162 0.682zM28.712 19.165c-0.013-0-0.027-0.001-0.042-0.001-0.061 0-0.121 0.004-0.179 0.012l0.007-0.001-0.157 0.648h0.147c0.074-0 0.147-0.006 0.218-0.016l-0.008 0.001c0.073-0.010 0.139-0.030 0.199-0.060l-0.004 0.002c0.059-0.029 0.107-0.070 0.143-0.12l0.001-0.001c0.036-0.054 0.057-0.12 0.057-0.191 0-0.006-0-0.011-0-0.017l0 0.001c0-0.004 0-0.009 0-0.014 0-0.078-0.042-0.146-0.105-0.182l-0.001-0.001c-0.074-0.039-0.161-0.061-0.254-0.061-0.008 0-0.015 0-0.023 0l0.001-0z"></path>
<path fill="#889099" style="fill: var(--color4, #889099)" d="M29.361 20.699l0.414-1.719h1.019l-0.047 0.203h-0.78l-0.125 0.518h0.694l-0.047 0.196h-0.689l-0.15 0.601h0.838l-0.047 0.203h-1.079z"></path>
<path fill="#889099" style="fill: var(--color4, #889099)" d="M3.322 17.751c-1.819-0.009-3.289-1.485-3.289-3.305 0-1.825 1.48-3.305 3.305-3.305s3.305 1.48 3.305 3.305v0c-0.007 1.827-1.49 3.305-3.317 3.305-0.001 0-0.003 0-0.004 0h0zM2.714 15.717v0c0.102 0.028 0.197 0.052 0.29 0.075l-0.149 0.594 0.365 0.090 0.151-0.602c0.142 0.030 0.306 0.049 0.474 0.052l0.002 0c0.024 0.003 0.052 0.004 0.080 0.004 0.344 0 0.634-0.228 0.729-0.54l0.001-0.005c0.044-0.084 0.070-0.183 0.070-0.289 0-0.268-0.166-0.497-0.4-0.59l-0.004-0.002c0.255-0.052 0.446-0.266 0.465-0.527l0-0.002c0.057-0.378-0.175-0.644-0.729-0.834l0.149-0.596-0.365-0.090-0.147 0.579c-0.081-0.020-0.17-0.040-0.292-0.068l0.146-0.585-0.365-0.090-0.147 0.596-0.041-0.009c-0.063-0.014-0.129-0.030-0.194-0.046l-0.502-0.126-0.097 0.388c0.097 0.022 0.262 0.060 0.265 0.065 0.097 0.012 0.171 0.093 0.171 0.192 0 0.007-0 0.013-0.001 0.020l0-0.001-0.17 0.679h0.006c0.013 0.004 0.024 0.007 0.034 0.012l-0.002-0.001-0.030-0.008-0.009-0.002-0.24 0.953c-0.018 0.052-0.065 0.089-0.121 0.091h-0c-0.015-0-0.030-0.002-0.045-0.006l0.001 0c-0.015 0-0.263-0.065-0.265-0.066l-0.182 0.415 0.474 0.117q0.092 0.023 0.182 0.047l0.078 0.020-0.151 0.603 0.365 0.091 0.15-0.596zM3.507 15.401c-0.219-0.011-0.425-0.047-0.621-0.107l0.018 0.005-0.070-0.018 0.2-0.799c0.025 0.006 0.055 0.013 0.090 0.021 0.229 0.051 0.655 0.147 0.796 0.375 0.030 0.048 0.048 0.107 0.048 0.169 0 0.031-0.004 0.062-0.013 0.090l0.001-0.002c-0.046 0.177-0.196 0.269-0.45 0.269zM3.669 14.214c-0.176-0.007-0.342-0.036-0.5-0.085l0.014 0.004-0.060-0.015 0.181-0.724c0.021 0.005 0.046 0.011 0.075 0.017 0.186 0.040 0.533 0.117 0.654 0.313 0.028 0.045 0.044 0.1 0.044 0.159 0 0.030-0.004 0.059-0.012 0.087l0.001-0.002c-0.041 0.166-0.175 0.25-0.398 0.252z"></path>
</symbol>
<symbol id="icon-facebook" viewBox="0 0 16 32">
<path d="M10.381 32v-14.595h4.719l0.704-5.689h-5.423v-3.627c0-1.653 0.437-2.765 2.719-2.765h2.901v-5.104c-1.208-0.14-2.607-0.22-4.026-0.22-0.071 0-0.143 0-0.214 0.001l0.011-0c-4.179 0-7.039 2.647-7.039 7.518v4.197h-4.733v5.689h4.733v14.597z"></path>
</symbol>
<symbol id="icon-twitter" viewBox="0 0 39 32">
<path d="M38.957 3.786c-1.337 0.616-2.887 1.064-4.514 1.265l-0.077 0.008c1.656-1.017 2.899-2.568 3.5-4.41l0.016-0.057c-1.461 0.89-3.162 1.57-4.975 1.944l-0.103 0.018c-1.454-1.572-3.527-2.553-5.829-2.553-0.001 0-0.002 0-0.004 0h0c-4.42 0.025-7.993 3.614-7.993 8.037 0 0.015 0 0.029 0 0.044v-0.002c0 0.003 0 0.007 0 0.011 0 0.649 0.076 1.281 0.218 1.887l-0.011-0.056c-6.673-0.357-12.533-3.557-16.436-8.4l-0.034-0.043c-0.679 1.164-1.080 2.563-1.080 4.055 0 2.785 1.396 5.243 3.527 6.714l0.027 0.018c-1.336-0.047-2.576-0.418-3.656-1.035l0.039 0.020v0.102c-0 0.010-0 0.022-0 0.033 0 3.869 2.723 7.102 6.357 7.887l0.053 0.010c-0.628 0.177-1.348 0.278-2.093 0.278-0.004 0-0.009 0-0.013 0h0.001c-0 0-0.001 0-0.001 0-0.532 0-1.051-0.055-1.552-0.159l0.049 0.009c1.032 3.221 3.963 5.527 7.445 5.611l0.010 0c-2.691 2.152-6.144 3.453-9.901 3.453-0.007 0-0.013 0-0.020 0h0.001c-0.672-0-1.335-0.040-1.985-0.118l0.079 0.008c3.451 2.279 7.685 3.635 12.235 3.635 0.003 0 0.006 0 0.009 0h-0c14.701 0 22.737-12.313 22.737-22.993l-0.026-1.046c1.581-1.15 2.91-2.535 3.966-4.117l0.037-0.059z"></path>
</symbol>
<symbol id="icon-Group" viewBox="0 0 32 32">
<path fill="#323642" style="fill: var(--color1, #323642)" d="M30.024 0h-27.456c-0.053-0.004-0.116-0.007-0.178-0.007-1.247 0-2.272 0.952-2.389 2.168l-0.001 0.010v27.595c0.116 1.258 1.167 2.236 2.446 2.236 0.043 0 0.085-0.001 0.128-0.003l-0.006 0h27.456c0.010 0 0.021 0 0.033 0 1.084 0 1.962-0.879 1.962-1.962 0-0.096-0.007-0.19-0.020-0.282l0.001 0.011v-27.595c0.012-0.079 0.018-0.171 0.018-0.264 0-1.055-0.855-1.91-1.91-1.91-0.030 0-0.059 0.001-0.089 0.002l0.004-0z"></path>
<path fill="#fff" style="fill: var(--color2, #fff)" d="M17.455 26.911h-4.809c0-0.114 0.064-13.094 0-14.546h4.808v1.979c0.914-1.454 2.51-2.407 4.329-2.407 0.056 0 0.111 0.001 0.166 0.003l-0.008-0c0.061-0.002 0.132-0.004 0.203-0.004 1.505 0 2.866 0.613 3.848 1.603l0 0c1.033 1.216 1.661 2.804 1.661 4.539 0 0.145-0.004 0.288-0.013 0.431l0.001-0.020v8.422h-5.096v-7.865c0-2.183-0.815-3.29-2.421-3.29-1.143 0.017-2.113 0.739-2.496 1.75l-0.006 0.019c-0.109 0.306-0.173 0.66-0.173 1.028 0 0.053 0.001 0.105 0.004 0.157l-0-0.007v8.207zM9.455 26.911h-4.363v-14.546h4.362v14.544zM7.52 10.183h-0.032c-0.066 0.006-0.143 0.010-0.221 0.010-1.363 0-2.468-1.104-2.47-2.467v-0c0.010-1.381 1.132-2.496 2.514-2.496 0.084 0 0.167 0.004 0.249 0.012l-0.010-0.001c0.066-0.006 0.144-0.010 0.222-0.010 1.374 0 2.489 1.108 2.5 2.478v0.001c-0.017 1.375-1.136 2.483-2.514 2.483-0.084 0-0.167-0.004-0.249-0.012l0.010 0.001z"></path>
</symbol>
<symbol id="icon-icon-comment" viewBox="0 0 32 32">
<path fill="#889099" style="fill: var(--color4, #889099)" d="M8.072 8.785v10.667h2.624v2.36l4.753-2.36h7.967v-10.667h-15.344zM6.56 5.961h18.367c0.722 0 1.312 0.638 1.312 1.343v13.776c0 0.705-0.59 1.195-1.312 1.195h-8.816l-7.056 3.502c-0.653 0.306-1.183 0.187-1.183-0.521v-2.982h-1.312c-0.722 0-1.312-0.489-1.312-1.195v-13.776c0-0.705 0.59-1.343 1.312-1.343z"></path>
</symbol>
<symbol id="icon-icon-dark-close" viewBox="0 0 32 32">
<path fill="#889099" style="fill: var(--color4, #889099)" d="M25.333 8.547l-1.88-1.88-7.453 7.453-7.453-7.453-1.88 1.88 7.453 7.453-7.453 7.453 1.88 1.88 7.453-7.453 7.453 7.453 1.88-1.88-7.453-7.453z"></path>
</symbol>
<symbol id="icon-shape" viewBox="0 0 32 32">
<path fill="#4CB649" d="M18.56 6.144c-0.398 0.228-0.498 0.398-0.498 0.896 0 0.37 0.512 0.939 3.797 4.224l3.812 3.812h-11.065c-10.866 0-11.051 0-11.335 0.284-0.37 0.37-0.37 0.91 0 1.28 0.284 0.284 0.469 0.284 11.335 0.284h11.065l-3.812 3.812c-3.285 3.285-3.797 3.854-3.797 4.224 0 0.242 0.057 0.498 0.114 0.583 0.185 0.284 0.725 0.498 1.067 0.412 0.185-0.057 2.46-2.219 5.049-4.821 4.053-4.053 4.722-4.779 4.722-5.134s-0.668-1.081-4.722-5.148c-2.944-2.93-4.864-4.75-5.092-4.793-0.199-0.043-0.484-0.014-0.64 0.085z"></path>
</symbol>
<symbol id="icon-icon-red-alert" viewBox="0 0 32 32">
<path fill="#ff8d00" style="fill: var(--color6, #ff8d00)" d="M1.333 28l14.667-25.333 14.667 25.333z"></path>
</symbol>
<symbol id="icon-search" viewBox="0 0 32 32">
<path stroke-linejoin="round" stroke-linecap="round" stroke-miterlimit="10" stroke-width="3.1351" d="M25.081 13.324c0 6.493-5.264 11.757-11.757 11.757s-11.757-5.264-11.757-11.757c0-6.493 5.264-11.757 11.757-11.757s11.757 5.264 11.757 11.757z"></path>
<path stroke-linejoin="round" stroke-linecap="round" stroke-miterlimit="10" stroke-width="3.1351" d="M29.783 29.783l-8.151-8.151"></path>
</symbol>
<symbol id="icon-search1" viewBox="0 0 32 32">
<path d="M31.008 27.231l-7.58-6.447c-0.784-0.705-1.622-1.029-2.299-0.998 1.789-2.096 2.87-4.815 2.87-7.787 0-6.627-5.373-12-12-12s-12 5.373-12 12 5.373 12 12 12c2.972 0 5.691-1.081 7.787-2.87-0.031 0.677 0.293 1.515 0.998 2.299l6.447 7.58c1.104 1.226 2.907 1.33 4.007 0.23s0.997-2.903-0.23-4.007zM12 20c-4.418 0-8-3.582-8-8s3.582-8 8-8 8 3.582 8 8-3.582 8-8 8z"></path>
</symbol>
<symbol id="icon-ilo-light-announcements" viewBox="0 0 32 32">
<path fill="#46b843" style="fill: var(--color7, #46b843)" d="M15.913 25.6c1.169 0 2.119-0.951 2.119-2.119v-1.164h7.088l-2.153-4.407v-4.344c-0-1.407-0.418-2.767-1.208-3.932-0.787-1.161-1.891-2.051-3.193-2.573-0.419-0.154-1.689-0.539-2.721-0.539-1.227 0-2.552 0.527-2.563 0.531l-0.016 0.006c-1.315 0.508-2.427 1.394-3.218 2.56s-1.2 2.529-1.185 3.938l0 0.012v4.339l-2.153 4.407h7.083v1.164c0 1.169 0.951 2.119 2.119 2.119zM15.913 26.667c-1.759 0-3.186-1.426-3.186-3.186v-0.097h-6.133c-0.343-0-0.662-0.177-0.843-0.468s-0.2-0.655-0.049-0.963l2.095-4.289v-4.093c-0.037-3.317 1.99-6.309 5.084-7.505 0 0 1.502-0.61 2.964-0.61s3.104 0.61 3.104 0.61c3.070 1.224 5.084 4.195 5.084 7.5v4.098l2.095 4.289c0.151 0.308 0.132 0.672-0.049 0.963s-0.5 0.468-0.843 0.468h-6.138v0.097c0 1.759-1.426 3.186-3.186 3.186z"></path>
<path fill="none" stroke="#46b843" style="stroke: var(--color7, #46b843)" stroke-linejoin="miter" stroke-linecap="square" stroke-miterlimit="10" stroke-width="1.0667" d="M8.19 23.076h15.238"></path>
</symbol>
<symbol id="icon-ilo-light-announcements2" viewBox="0 0 32 32">
<path fill="#46b843" style="fill: var(--color7, #46b843)" d="M25.768 25.6c-0.261-5.004-2.353-9.7-5.917-13.263-3.56-3.564-8.252-5.656-13.253-5.919v1.942c4.478 0.259 8.684 2.151 11.878 5.349s5.082 7.41 5.339 11.892h1.954zM18.495 25.6c-0.252-3.068-1.583-5.943-3.777-8.138-2.192-2.195-5.061-3.526-8.121-3.775v1.948c2.547 0.247 4.932 1.373 6.747 3.194 1.818 1.813 2.942 4.207 3.188 6.772h1.962zM26.197 26.667h-2.752c-0.369 0-0.666-0.306-0.68-0.675-0.344-8.984-7.588-16.236-16.56-16.584-0.369-0.015-0.675-0.312-0.675-0.68v-2.739c0-0.368 0.305-0.668 0.675-0.656 5.612 0.177 10.683 2.528 14.4 6.249 3.716 3.715 6.071 8.795 6.247 14.409 0.012 0.368-0.287 0.675-0.655 0.675zM18.94 26.667h-2.756c-0.368 0-0.665-0.306-0.689-0.672-0.161-2.425-1.179-4.692-2.905-6.413-1.723-1.728-3.98-2.748-6.389-2.909-0.367-0.025-0.669-0.323-0.669-0.69v-2.737c0-0.369 0.303-0.668 0.669-0.652 3.615 0.169 6.875 1.713 9.273 4.116 2.405 2.407 3.943 5.669 4.116 9.284 0.017 0.368-0.281 0.675-0.649 0.675z"></path>
<path fill="none" stroke="#46b843" style="stroke: var(--color7, #46b843)" stroke-linejoin="miter" stroke-linecap="butt" stroke-miterlimit="10" stroke-width="1.0667" d="M10.631 23.884c0 1.537-1.246 2.782-2.782 2.782s-2.782-1.246-2.782-2.782c0-1.537 1.246-2.782 2.782-2.782s2.782 1.246 2.782 2.782z"></path>
</symbol>
<symbol id="icon-mc_vrt_pos" viewBox="0 0 32 32">
<path fill="#889099" style="fill: var(--color4, #889099)" d="M31.378 28.354c-0.013-0.030-0.021-0.065-0.021-0.102s0.008-0.072 0.022-0.104l-0.001 0.002c0.029-0.063 0.079-0.112 0.142-0.138l0.002-0.001c0.031-0.013 0.067-0.020 0.104-0.020 0.003 0 0.007 0 0.010 0h-0.004c0.036 0 0.069 0.008 0.1 0.020l-0.002-0.001c0.033 0.014 0.062 0.033 0.086 0.056l-0-0c0.024 0.023 0.043 0.051 0.057 0.081l0.001 0.002c0.013 0.030 0.021 0.065 0.021 0.102s-0.008 0.072-0.022 0.104l0.001-0.002c-0.015 0.032-0.034 0.060-0.058 0.083l-0 0c-0.024 0.023-0.053 0.042-0.084 0.055l-0.002 0.001c-0.031 0.014-0.067 0.022-0.105 0.022v0c-0.109-0.002-0.203-0.066-0.246-0.159l-0.001-0.002zM13.862 28.453c-0.68 0-0.919-0.365-0.919-0.979v-1.216h-0.537v-0.526h0.525v-0.802h0.581v0.802h0.946l0.006 0.525h-0.941v1.207c0 0.265 0.105 0.443 0.382 0.443 0.189-0.006 0.363-0.060 0.514-0.15l-0.005 0.003 0.166 0.492c-0.203 0.129-0.45 0.205-0.715 0.205 0 0 0 0 0 0v0zM9.657 28.099l0.277-0.448c0.232 0.173 0.524 0.278 0.84 0.278 0.014 0 0.028-0 0.042-0.001l-0.002 0c0.394 0 0.604-0.117 0.604-0.321 0-0.148-0.148-0.232-0.465-0.277l-0.277-0.038c-0.591-0.083-0.913-0.349-0.913-0.78 0-0.526 0.437-0.847 1.107-0.847 0.020-0.001 0.044-0.001 0.067-0.001 0.373 0 0.722 0.103 1.020 0.283l-0.009-0.005-0.255 0.465c-0.238-0.139-0.524-0.223-0.829-0.227h-0.001c-0.316 0-0.504 0.133-0.504 0.31s0.197 0.227 0.448 0.26l0.277 0.038c0.575 0.084 0.924 0.289 0.924 0.793s-0.443 0.863-1.207 0.863h-0.054c-0.408-0-0.787-0.128-1.097-0.347l0.006 0.004zM20.346 28.050c-0.247-0.243-0.401-0.58-0.401-0.954 0-0.017 0-0.035 0.001-0.052l-0 0.002v-0.008c-0.001-0.015-0.001-0.033-0.001-0.050 0-0.738 0.598-1.336 1.336-1.336 0.027 0 0.053 0.001 0.080 0.002l-0.004-0c0.021-0.001 0.046-0.002 0.070-0.002 0.336 0 0.644 0.12 0.883 0.319l-0.002-0.002-0.277 0.465c-0.189-0.146-0.428-0.234-0.688-0.238h-0.001c-0.439 0.036-0.781 0.401-0.781 0.847s0.343 0.81 0.778 0.846l0.003 0c0.261-0.003 0.5-0.092 0.692-0.24l-0.003 0.002 0.277 0.464c-0.237 0.198-0.545 0.317-0.881 0.317-0.025 0-0.049-0.001-0.074-0.002l0.003 0q-0.038 0-0.076 0c-0.001 0-0.002 0-0.003 0-0.363 0-0.692-0.144-0.932-0.379l0 0zM16.291 28.432c-0.006 0-0.013 0-0.019 0-0.764 0-1.384-0.619-1.384-1.384 0-0.757 0.608-1.372 1.363-1.383h0.001l0.008 0.005c0.001 0 0.003 0 0.005 0 0.695 0 1.258 0.563 1.258 1.258 0 0.044-0.002 0.088-0.007 0.131l0-0.005v0.221h-1.967c0.043 0.368 0.353 0.65 0.729 0.65 0.022 0 0.043-0.001 0.065-0.003l-0.003 0c0.293-0.005 0.56-0.108 0.771-0.279l-0.002 0.002 0.277 0.426c-0.274 0.225-0.629 0.362-1.016 0.362-0 0-0 0-0 0h0q-0.040 0-0.079-0.002zM29.288 28.432c-0.764 0-1.383-0.619-1.383-1.383s0.619-1.383 1.383-1.383v0c0.011-0 0.024-0.001 0.037-0.001 0.321 0 0.607 0.151 0.791 0.386l0.002 0.002v-1.383h0.548v3.696h-0.553v-0.321c-0.185 0.237-0.471 0.388-0.792 0.388-0 0-0 0-0 0h0zM23.934 28.432c-0.764 0-1.383-0.619-1.383-1.383s0.619-1.383 1.383-1.383v0c0.009-0 0.021-0 0.032-0 0.321 0 0.607 0.151 0.791 0.386l0.002 0.002v-0.321h0.575v2.634h-0.575v-0.321c-0.186 0.237-0.472 0.388-0.793 0.388-0 0-0 0-0 0v0zM7.708 28.432c-0.764 0-1.383-0.619-1.383-1.383s0.619-1.383 1.383-1.383v0c0.011-0 0.024-0.001 0.037-0.001 0.321 0 0.607 0.151 0.791 0.386l0.002 0.002v-0.321h0.575v2.634h-0.579v-0.321c-0.185 0.237-0.471 0.388-0.792 0.388-0 0-0 0-0 0v0zM5.282 26.916c0-0.448-0.188-0.697-0.581-0.697-0.009-0-0.020-0.001-0.031-0.001-0.343 0-0.622 0.278-0.622 0.622 0 0.029 0.002 0.057 0.006 0.085l-0-0.003v1.466h-0.581v-1.472c0-0.448-0.193-0.697-0.575-0.697-0.010-0.001-0.022-0.001-0.033-0.001-0.342 0-0.62 0.277-0.62 0.62 0 0.030 0.002 0.059 0.006 0.087l-0-0.003v1.455h-0.581v-2.645h0.575v0.326c0.158-0.239 0.427-0.395 0.731-0.395 0.015 0 0.030 0 0.046 0.001l-0.002-0c0.013-0.001 0.027-0.001 0.042-0.001 0.352 0 0.659 0.187 0.83 0.467l0.002 0.004c0.185-0.286 0.502-0.472 0.863-0.472 0.023 0 0.046 0.001 0.069 0.002l-0.003-0c0.017-0.001 0.038-0.002 0.058-0.002 0.544 0 0.985 0.441 0.985 0.985 0 0.024-0.001 0.049-0.003 0.073l0-0.003v1.66l-0.581 0.011zM26.094 28.377v-2.645h0.57v0.321c0.137-0.234 0.388-0.388 0.674-0.388 0.008 0 0.016 0 0.024 0l-0.001-0-0.011-0.011c0.147 0.001 0.288 0.027 0.418 0.075l-0.009-0.003-0.177 0.553c-0.103-0.042-0.222-0.067-0.347-0.067-0.005 0-0.009 0-0.014 0h0.001c-0.365 0-0.553 0.244-0.553 0.68v1.483zM18.101 28.377v-2.645h0.57v0.321c0.138-0.234 0.388-0.388 0.674-0.388 0.008 0 0.016 0 0.025 0l-0.001-0-0.011-0.011c0.147 0.001 0.288 0.027 0.418 0.075l-0.009-0.003-0.177 0.554c-0.103-0.042-0.222-0.067-0.347-0.067-0.005 0-0.009 0-0.014 0h0.001c-0.365 0-0.553 0.244-0.553 0.68v1.483z"></path>
<path fill="#889099" style="fill: var(--color4, #889099)" opacity="0.4" d="M12.31 13.409c0-0.003 0-0.007 0-0.010 0-3.165 1.479-5.985 3.783-7.806l0.021-0.016c-1.677-1.327-3.822-2.129-6.154-2.129-5.501 0-9.96 4.459-9.96 9.96s4.459 9.96 9.96 9.96c2.332 0 4.478-0.802 6.175-2.145l-0.021 0.016c-2.325-1.837-3.804-4.657-3.804-7.822 0-0.002 0-0.004 0-0.006v0z"></path>
<path fill="#889099" style="fill: var(--color4, #889099)" d="M32.231 13.409c0 0 0 0 0 0 0 5.501-4.459 9.96-9.96 9.96-2.333 0-4.479-0.802-6.177-2.146l0.021 0.016c2.326-1.84 3.806-4.663 3.806-7.831 0-0 0-0 0-0v0c0-0 0-0 0-0 0-3.168-1.479-5.991-3.785-7.815l-0.021-0.016c1.677-1.328 3.823-2.131 6.156-2.131 5.5 0 9.959 4.458 9.96 9.958v0z"></path>
<path fill="#889099" style="fill: var(--color4, #889099)" opacity="0.65" d="M16.203 21.497c-2.406-1.863-3.94-4.753-3.94-8s1.534-6.137 3.917-7.983l0.023-0.017c2.405 1.86 3.938 4.746 3.938 7.991 0 0.003 0 0.006 0 0.009v-0c0 0.003 0 0.006 0 0.010 0 3.244-1.534 6.131-3.915 7.974l-0.023 0.017z"></path>
<path fill="#889099" style="fill: var(--color4, #889099)" d="M31.86 19.29l-0.108 0.252h-0.074l-0.108-0.252v0.289h-0.072v-0.387h0.089l0.116 0.277 0.116-0.277h0.098v0.387l-0.057 0.002zM31.22 19.579v-0.321h-0.141v-0.066h0.329v0.066h-0.13v0.321z"></path>
</symbol>
<symbol id="icon-OK-Pay" viewBox="0 0 32 32">
<path fill="#889099" style="fill: var(--color4, #889099)" d="M31.619 12.682h-0.488c-0.312 0.026-0.577 0.205-0.722 0.461l-0.002 0.005-1.53 2.179-0.905-1.291c-0.004-0.007-0.006-0.013-0.011-0.019l-0.612-0.867c-0.149-0.26-0.414-0.439-0.724-0.465l-0.003-0h-0.453c-0.313 0-0.515 0.209-0.334 0.464l0.614 0.869 0.004 0.005 1.75 2.47v2.797c0 0.314 0.255 0.568 0.568 0.569h0.212c0.314-0.002 0.567-0.256 0.568-0.57v-2.798l1.864-2.631c0.006-0.007 0.013-0.015 0.019-0.023l0.487-0.692c0.181-0.253 0.011-0.463-0.301-0.463z"></path>
<path fill="#889099" style="fill: var(--color4, #889099)" d="M11.223 16.045l1.756-1.69c0.008-0.007 1.241-1.194 1.241-1.194 0.223-0.214-0.016-0.479-0.32-0.479h-0.668c-0.303 0-0.457 0.176-0.679 0.389l-2.139 2.076v-0.92h-0.004c0-0.013 0.003-0.024 0.003-0.037v-0.939c0-0.002 0-0.005 0-0.007 0-0.307-0.246-0.556-0.552-0.562h-0.249c-0.306 0.005-0.553 0.255-0.553 0.562 0 0.003 0 0.005 0 0.008v-0 0.939c0 0.013 0.003 0.024 0.003 0.037h-0.003v5.059c-0 0.002-0 0.005-0 0.007 0 0.307 0.246 0.557 0.552 0.562h0.249c0.306-0.005 0.553-0.255 0.553-0.562 0-0.002 0-0.004-0-0.006v0-2.266l2.365 2.434c0.216 0.221 0.363 0.402 0.667 0.402h0.669c0.182-0.008 0.327-0.157 0.327-0.34 0-0.099-0.042-0.189-0.11-0.251l-0-0-3.109-3.222z"></path>
<path fill="#889099" style="fill: var(--color4, #889099)" d="M26.786 19.86h-0.45c-0.302-0.028-0.546-0.245-0.615-0.53l-0.001-0.005-0.066-0.176-0.411-1.095-0.028-0.058-0.037-0.098h-2.778l-0.458 1.219h-0.004l-0.077 0.206c-0.098 0.264-0.243 0.535-0.571 0.535h-0.509c-0.008 0.001-0.018 0.001-0.027 0.001-0.128 0-0.241-0.061-0.313-0.156l-0.001-0.001c-0.035-0.058-0.056-0.127-0.056-0.202 0-0.062 0.015-0.121 0.041-0.173l-0.001 0.002 0.087-0.212 2.27-5.641h0.004l0.106-0.265c0.141-0.302 0.435-0.512 0.779-0.53l0.002-0h0.227c0.348 0.017 0.642 0.226 0.782 0.523l0.002 0.006 0.107 0.266 2.282 5.671h-0.003l0.074 0.183c0.029 0.050 0.046 0.111 0.046 0.175 0 0.198-0.16 0.358-0.358 0.358-0.016 0-0.032-0.001-0.047-0.003l0.002 0zM23.785 14.603c-0.041 0-0.079 0.039-0.108 0.109l-0.723 1.771c-0.014 0.025-0.022 0.055-0.022 0.087 0 0.098 0.080 0.178 0.178 0.178 0.008 0 0.015-0 0.023-0.001l-0.001 0h1.308c0.007 0.001 0.014 0.001 0.022 0.001 0.098 0 0.178-0.080 0.178-0.178 0-0.032-0.008-0.062-0.023-0.087l0 0.001-0.726-1.773c-0.028-0.068-0.067-0.107-0.107-0.107z"></path>
<path fill="#889099" style="fill: var(--color4, #889099)" d="M17.228 19.86h-0.227c-0.001 0-0.003 0-0.004 0-0.317 0-0.573-0.256-0.576-0.571v-6.037c0.003-0.315 0.26-0.57 0.576-0.57 0.002 0 0.003 0 0.005 0h1.842c0.061-0.004 0.131-0.007 0.202-0.007 0.667 0 1.284 0.213 1.786 0.575l-0.009-0.006c0.226 0.187 0.404 0.424 0.518 0.695l0.004 0.012c0.11 0.269 0.173 0.582 0.173 0.909 0 0.015-0 0.030-0 0.045l0-0.002c0 0.013 0 0.029 0 0.044 0 0.329-0.064 0.643-0.179 0.931l0.006-0.017c-0.118 0.283-0.296 0.52-0.519 0.704l-0.003 0.002c-0.494 0.356-1.111 0.569-1.778 0.569-0.071 0-0.141-0.002-0.21-0.007l0.009 0h-1.035v2.16c-0.002 0.316-0.259 0.571-0.576 0.571-0.002 0-0.003 0-0.005-0h0zM18.098 13.822c-0.001 0-0.001 0-0.002 0-0.158 0-0.286 0.127-0.288 0.285v1.598c0.002 0.158 0.13 0.285 0.288 0.285 0.001 0 0.002 0 0.002 0h0.745c0.028 0.002 0.060 0.003 0.093 0.003 0.315 0 0.604-0.107 0.835-0.286l-0.003 0.002c0.101-0.090 0.18-0.202 0.23-0.328l0.002-0.006c0.050-0.133 0.079-0.288 0.079-0.449 0-0.008-0-0.016-0-0.023l0 0.001c0-0.007 0-0.014 0-0.022 0-0.159-0.029-0.312-0.082-0.453l0.003 0.009c-0.052-0.133-0.131-0.244-0.231-0.333l-0.001-0.001c-0.228-0.178-0.518-0.285-0.833-0.285-0.032 0-0.064 0.001-0.096 0.003l0.004-0z"></path>
<path fill="#889099" style="fill: var(--color4, #889099)" d="M4.969 19.859h-0.017c-0.039 0.002-0.086 0.003-0.132 0.003-0.963 0-1.831-0.409-2.44-1.062l-0.002-0.002c-0.44-0.494-0.749-1.114-0.867-1.799l-0.003-0.022-0.078-0.613v-0.004c-0.006-0.1-0.013-0.235-0.013-0.374 0-0.077 0.003-0.147 0.007-0.216v-0.032l0.059-0.611c0.105-0.758 0.427-1.426 0.9-1.957l-0.003 0.004c0.609-0.658 1.477-1.068 2.441-1.068 0.046 0 0.093 0.001 0.139 0.003l-0.007-0h0.017c0.039-0.002 0.084-0.003 0.13-0.003 0.962 0 1.829 0.41 2.434 1.065l0.002 0.002c0.599 0.699 0.964 1.615 0.964 2.616 0 0.068-0.002 0.136-0.005 0.204l0-0.009c0.003 0.057 0.005 0.124 0.005 0.191 0 1.001-0.365 1.917-0.969 2.622l0.005-0.005c-0.607 0.658-1.474 1.069-2.438 1.069-0.045 0-0.090-0.001-0.135-0.003l0.006 0zM3.426 13.986c-0.252 0.326-0.43 0.721-0.504 1.152l-0.002 0.015-0.068 0.597c0 0.023 0 0.078 0 0.144 0 0.086 0 0.182 0.003 0.259 0 0.087 0.003 0.159 0.006 0.193l0.089 0.598c0.086 0.398 0.253 0.747 0.485 1.044l-0.004-0.006c0.175 0.223 0.397 0.401 0.651 0.522l0.011 0.005c0.243 0.11 0.526 0.173 0.824 0.173 0.016 0 0.031-0 0.047-0.001l-0.002 0c0.013 0 0.029 0 0.045 0 0.298 0 0.58-0.064 0.835-0.179l-0.013 0.005c0.265-0.125 0.486-0.304 0.656-0.524l0.003-0.004c0.365-0.506 0.583-1.137 0.583-1.82 0-0.062-0.002-0.123-0.005-0.184l0 0.008c0.003-0.053 0.005-0.115 0.005-0.177 0-0.684-0.219-1.316-0.59-1.832l0.006 0.009c-0.174-0.224-0.395-0.402-0.649-0.523l-0.011-0.005c-0.242-0.11-0.525-0.173-0.822-0.173-0.016 0-0.031 0-0.047 0.001l0.002-0c-0.013-0-0.029-0.001-0.045-0.001-0.298 0-0.582 0.064-0.837 0.179l0.013-0.005c-0.266 0.125-0.489 0.305-0.66 0.526l-0.003 0.004z"></path>
<path fill="#889099" style="fill: var(--color4, #889099)" d="M4.941 15.552h-4.658l0.438-0.861h4.658l-0.438 0.861z"></path>
<path fill="#889099" style="fill: var(--color4, #889099)" d="M4.068 17.275h-4.068l0.461-0.861h4.068l-0.461 0.861z"></path>
</symbol>
<symbol id="icon-pay_pal" viewBox="0 0 32 32">
<path fill="#889099" style="fill: var(--color4, #889099)" d="M0 0h32v32h-32v-32z"></path>
</symbol>
<symbol id="icon-Shape-1" viewBox="0 0 32 32">
<path d="M2.952 23.353c-1.826-1.813-2.956-4.325-2.956-7.1 0-0.089 0.001-0.178 0.003-0.266l-0 0.013c-0.002-0.075-0.003-0.164-0.003-0.253 0-2.776 1.13-5.287 2.955-7.1l0.001-0.001c1.769-1.851 4.257-3.002 7.014-3.002 0.079 0 0.157 0.001 0.236 0.003l-0.012-0c0.065-0.002 0.142-0.003 0.22-0.003 2.585 0 4.929 1.035 6.639 2.713l-0.002-0.001-2.761 2.71c-0.997-0.961-2.355-1.554-3.852-1.554-0.085 0-0.17 0.002-0.255 0.006l0.012-0c-1.763 0.001-3.353 0.744-4.474 1.933l-0.003 0.003c-1.166 1.199-1.89 2.834-1.905 4.638l-0 0.003c-0 0.026-0.001 0.057-0.001 0.088 0 1.783 0.729 3.395 1.905 4.556l0.001 0.001c1.124 1.192 2.713 1.935 4.476 1.936h0c0.023 0 0.051 0 0.079 0 1.395 0 2.689-0.435 3.752-1.176l-0.021 0.014c1.067-0.761 1.806-1.924 1.997-3.263l0.003-0.026h-5.81v-3.576h9.619c0.104 0.514 0.171 1.114 0.188 1.727l0 0.015c0 3-0.857 5.418-2.761 7.16-1.705 1.734-4.077 2.809-6.699 2.809-0.122 0-0.243-0.002-0.364-0.007l0.017 0.001c-0.067 0.002-0.145 0.003-0.224 0.003-2.757 0-5.245-1.151-7.010-2.998l-0.003-0.004zM26.191 20.645v-3h-2.952v-3h2.952v-3h2.952v3h2.857v3h-2.856v3z"></path>
</symbol>
<symbol id="icon-Shape" viewBox="0 0 32 32">
<path d="M32 5.967c-1.098 0.506-2.372 0.874-3.708 1.039l-0.063 0.006c1.36-0.835 2.381-2.11 2.875-3.623l0.013-0.047c-1.2 0.731-2.597 1.29-4.087 1.597l-0.085 0.015c-1.194-1.291-2.897-2.097-4.788-2.097-0.001 0-0.002 0-0.003 0h0c-3.631 0.021-6.566 2.969-6.566 6.602 0 0.012 0 0.024 0 0.036v-0.002c0 0.003 0 0.006 0 0.009 0 0.533 0.062 1.052 0.179 1.55l-0.009-0.046c-5.481-0.294-10.295-2.922-13.501-6.9l-0.028-0.036c-0.558 0.956-0.887 2.105-0.887 3.331 0 2.287 1.147 4.307 2.897 5.515l0.022 0.015c-1.097-0.039-2.116-0.343-3.003-0.85l0.032 0.017v0.083c-0 0.008-0 0.018-0 0.027 0 3.178 2.237 5.834 5.222 6.479l0.044 0.008c-0.516 0.145-1.108 0.229-1.719 0.229-0.003 0-0.007 0-0.011 0h0.001c-0 0-0.001 0-0.001 0-0.437 0-0.863-0.045-1.275-0.13l0.040 0.007c0.848 2.646 3.256 4.54 6.115 4.609l0.008 0c-2.211 1.768-5.047 2.837-8.133 2.837-0.005 0-0.011 0-0.016 0h0.001c-0.552-0-1.096-0.033-1.631-0.097l0.065 0.006c2.834 1.872 6.312 2.986 10.050 2.986 0.002 0 0.005 0 0.007 0h-0c12.075 0 18.677-10.114 18.677-18.887l-0.022-0.859c1.299-0.945 2.391-2.082 3.258-3.382l0.030-0.048z"></path>
</symbol>
<symbol id="icon-sociai-icons-youtube" viewBox="0 0 32 32">
<path fill="#323642" style="fill: var(--color1, #323642)" d="M32.335 9.518c0-0 0-0.001 0-0.002 0-2.669-2.164-4.833-4.833-4.834h-22.67c-2.669 0.001-4.832 2.165-4.832 4.834 0 0.001 0 0.001 0 0.002v-0 12.964c0 0 0 0.001 0 0.002 0 2.669 2.163 4.833 4.832 4.834h22.67c2.669-0.001 4.832-2.165 4.832-4.834 0-0.001 0-0.001 0-0.002v0-12.964z"></path>
<path fill="#fff" style="fill: var(--color2, #fff)" d="M12.933 22.322v-12.176l9.234 6.088z"></path>
</symbol>
<symbol id="icon-visa" viewBox="0 0 32 32">
<path fill="#889099" style="fill: var(--color4, #889099)" d="M0 0h32v32h-32v-32z"></path>
</symbol>
<symbol id="icon-clubs" viewBox="0 0 32 32">
<path d="M24.588 12.274c-1.845 0-3.503 0.769-4.683 2.022-0.5 0.531-1.368 1.16-2.306 1.713 0.441-1.683 1.834-3.803 2.801-4.733 1.239-1.193 2-2.87 2-4.734 0-3.59-2.859-6.503-6.4-6.541-3.541 0.038-6.4 2.951-6.4 6.541 0 1.865 0.761 3.542 2 4.734 0.967 0.93 2.36 3.050 2.801 4.733-0.939-0.553-1.806-1.182-2.306-1.713-1.18-1.253-2.838-2.022-4.683-2.022-3.575 0-6.471 2.927-6.471 6.541s2.897 6.542 6.471 6.542c1.845 0 3.503-0.792 4.683-2.045 0.525-0.558 1.451-1.254 2.447-1.832-0.094 4.615-2.298 8.005-4.541 9.341v1.179h12v-1.179c-2.244-1.335-4.448-4.726-4.541-9.341 0.995 0.578 1.922 1.274 2.447 1.832 1.18 1.253 2.838 2.045 4.683 2.045 3.575 0 6.471-2.928 6.471-6.542s-2.897-6.541-6.471-6.541z"></path>
</symbol>
<symbol id="icon-combined-shape" viewBox="0 0 48 32">
<path d="M2 32c-1.105 0-2-0.895-2-2s0.895-2 2-2v0h44c1.105 0 2 0.895 2 2s-0.895 2-2 2v0zM2 18c-1.105 0-2-0.895-2-2s0.895-2 2-2v0h44c1.105 0 2 0.895 2 2s-0.895 2-2 2v0zM2 4c-1.105 0-2-0.895-2-2s0.895-2 2-2v0h44c1.105 0 2 0.895 2 2s-0.895 2-2 2v0z"></path>
</symbol>
<symbol id="icon-amazon-Pay-mobile" viewBox="0 0 167 32">
<path fill="#000" style="fill: var(--color1, #000)" d="M0 0h166.667v32h-166.667v-32z"></path>
<path fill="#889099" style="fill: var(--color2, #889099)" d="M0 0h166.667v32h-166.667v-32z"></path>
</symbol>
<symbol id="icon-pay_pal-mobile" viewBox="0 0 133 32">
<path fill="#889099" style="fill: var(--color2, #889099)" d="M0 0h133.333v32h-133.333v-32z"></path>
</symbol>
<symbol id="icon-visa-mobile" viewBox="0 0 89 32">
<path fill="#000" style="fill: var(--color1, #000)" d="M0 0h88.889v32h-88.889v-32z"></path>
<path fill="#889099" style="fill: var(--color2, #889099)" d="M0 0h88.889v32h-88.889v-32z"></path>
</symbol>
</defs>
</svg>
